<svg xmlns="http://www.w3.org/2000/svg" viewBox="0 0 128 128"><path fill="#F7A80D" d="M38.089 77.466l-11.4 4.896 10.559 4.514 12.241-4.514-11.4-4.896zm-17.138 6.12l-.382 22.034 16.679 7.345V90.089l-16.297-6.503zm34.276 0l-15.073 5.739V110.9l15.073-6.121V83.586zm17.979-68.551L61.73 19.931l10.635 4.515 12.241-4.515-11.4-4.896zm-15.914 6.503v22.034l14.231 4.132.459-20.046-14.69-6.12zm31.828 1.224L75.654 28.5v21.652l13.466-6.121V22.762zM19.306 46.047L6.268 42.386l-.382 19.665 12.16 4.132 1.26-20.136zm41.143-1.224L46.792 41.39l-1.269 20.136 14.689 5.355.229-22.058zm-19.219 6.121l-10.251 3.065 9.942 3.354 10.635-3.354-10.326-3.065zm54.454-3.826l-13.041 4.132 1.269 20.136 12.16-5.355-.388-18.913zm-36.033 5.355l-12.16 4.132-1.259 20.136 13.419-4.132V52.473zM83.091 19.931l11.4 4.896-10.559 4.515-12.241-4.515 11.4-4.896zm17.138 6.121l.382 22.034-16.679 7.345V34.495l16.297-8.443zm-34.276 0l15.073 7.345V55.43l-15.073-4.132V26.052zm54.837 13.224l-12.241 5.355.382 18.913 12.241-3.826-.382-20.442zm-19.737 0l-12.922 5.739.306 20.442 12.616-3.445V39.276zm-41.42 17.292l12.922 3.826.306-20.442-12.922-3.826-.306 20.442z"/></svg>