<svg width="260" height="80" viewBox="0 0 260 80" xmlns="http://www.w3.org/2000/svg"><defs><linearGradient id="a" x1="0%" y1="0%" x2="100%" y2="0%"><stop offset="0%" style="stop-color:#a3d1ff;stop-opacity:1"/><stop offset="50%" style="stop-color:#92bce6;stop-opacity:1"/><stop offset="100%" style="stop-color:#a3d1ff;stop-opacity:1"/></linearGradient><linearGradient id="d" x1="0%" y1="0%" x2="100%" y2="100%"><stop offset="0%" style="stop-color:#1a1a2e;stop-opacity:1"/><stop offset="50%" style="stop-color:#16213e;stop-opacity:1"/><stop offset="100%" style="stop-color:#0f3460;stop-opacity:1"/></linearGradient><linearGradient id="c" x1="0%" y1="0%" x2="100%" y2="100%"><stop offset="0%" style="stop-color:#e8e8e8;stop-opacity:1"/><stop offset="50%" style="stop-color:#d0d0d0;stop-opacity:1"/><stop offset="100%" style="stop-color:#b8b8b8;stop-opacity:1"/></linearGradient><linearGradient id="f" x1="0%" y1="0%" x2="100%" y2="100%"><stop offset="0%" style="stop-color:#f5f5f5;stop-opacity:1"/><stop offset="100%" style="stop-color:#e0e0e0;stop-opacity:1"/></linearGradient><filter id="e" x="-50%" y="-50%" width="200%" height="200%"><feGaussianBlur stdDeviation="2" result="coloredBlur"/><feMerge><feMergeNode in="coloredBlur"/><feMergeNode in="SourceGraphic"/></feMerge></filter><filter id="b" x="-50%" y="-50%" width="200%" height="200%"><feDropShadow dx="2" dy="4" stdDeviation="3" flood-color="#000" flood-opacity=".3"/></filter></defs><text y="35" font-family="SF Pro Display, -apple-system, BlinkMacSystemFont, sans-serif" font-size="28" font-weight="700" fill="url(#a)" letter-spacing="-.5">Marc Friedman</text><text y="55" font-family="SF Pro Display, -apple-system, BlinkMacSystemFont, sans-serif" font-size="12" font-weight="500" fill="#9CA3AF" letter-spacing="1">WEBSITE DESIGN AGENCY</text><g transform="translate(200 15)" filter="url(#b)"><rect y="20" width="45" height="3" rx="1.5" fill="url(#c)"/><rect x="2" width="41" height="25" rx="2" fill="url(#c)"/><rect x="4" y="2" width="37" height="21" rx="1" fill="url(#d)" filter="url(#e)"/><rect x="5" y="3" width="35" height="19" rx=".5" fill="#1a1a2e"/><circle cx="7" cy="5" r=".8" fill="#ff5f57"/><circle cx="9.5" cy="5" r=".8" fill="#ffbd2e"/><circle cx="12" cy="5" r=".8" fill="#28ca42"/><rect x="15" y="4" width="20" height="2" rx="1" fill="#2d3748"/><rect x="6" y="8" width="32" height="1" rx=".5" fill="#A3D1FF" opacity=".8"/><rect x="6" y="10.5" width="25" height=".8" rx=".4" fill="#92bce6" opacity=".6"/><rect x="6" y="12.5" width="28" height=".8" rx=".4" fill="#A3D1FF" opacity=".4"/><rect x="6" y="15" width="14" height="6" rx="1" fill="#2d3748" opacity=".8"/><rect x="22" y="15" width="14" height="6" rx="1" fill="#2d3748" opacity=".8"/><rect x="7" y="16" width="8" height=".5" rx=".25" fill="#A3D1FF" opacity=".6"/><rect x="7" y="17.5" width="6" height=".5" rx=".25" fill="#92bce6" opacity=".4"/><rect x="23" y="16" width="8" height=".5" rx=".25" fill="#A3D1FF" opacity=".6"/><rect x="23" y="17.5" width="6" height=".5" rx=".25" fill="#92bce6" opacity=".4"/><rect x="3" y="21" width="39" height="2" rx=".5" fill="url(#f)"/><rect x="4" y="21.3" width="1.5" height="1.4" rx=".2" fill="#f0f0f0"/><rect x="6" y="21.3" width="1.5" height="1.4" rx=".2" fill="#f0f0f0"/><rect x="8" y="21.3" width="1.5" height="1.4" rx=".2" fill="#f0f0f0"/><rect x="10" y="21.3" width="1.5" height="1.4" rx=".2" fill="#f0f0f0"/><rect x="12" y="21.3" width="1.5" height="1.4" rx=".2" fill="#f0f0f0"/><rect x="14" y="21.3" width="1.5" height="1.4" rx=".2" fill="#f0f0f0"/><rect x="16" y="21.3" width="1.5" height="1.4" rx=".2" fill="#f0f0f0"/><rect x="18" y="21.3" width="1.5" height="1.4" rx=".2" fill="#f0f0f0"/><rect x="20" y="21.3" width="1.5" height="1.4" rx=".2" fill="#f0f0f0"/><rect x="22" y="21.3" width="1.5" height="1.4" rx=".2" fill="#f0f0f0"/><rect x="24" y="21.3" width="1.5" height="1.4" rx=".2" fill="#f0f0f0"/><rect x="26" y="21.3" width="1.5" height="1.4" rx=".2" fill="#f0f0f0"/><rect x="28" y="21.3" width="1.5" height="1.4" rx=".2" fill="#f0f0f0"/><rect x="30" y="21.3" width="1.5" height="1.4" rx=".2" fill="#f0f0f0"/><rect x="32" y="21.3" width="1.5" height="1.4" rx=".2" fill="#f0f0f0"/><rect x="34" y="21.3" width="1.5" height="1.4" rx=".2" fill="#f0f0f0"/><rect x="36" y="21.3" width="1.5" height="1.4" rx=".2" fill="#f0f0f0"/><rect x="38" y="21.3" width="1.5" height="1.4" rx=".2" fill="#f0f0f0"/><rect x="40" y="21.3" width="1.5" height="1.4" rx=".2" fill="#f0f0f0"/><rect x="18" y="24.5" width="9" height="6" rx="1" fill="#e8e8e8"/><circle cx="22.5" cy="1.5" r=".8" fill="#2d3748"/><circle cx="22.5" cy="1.5" r=".4" fill="#4a5568"/></g></svg>