<svg width="260" height="80" viewBox="0 0 260 80" xmlns="http://www.w3.org/2000/svg"><text y="35" font-family="SF Pro Display, -apple-system, BlinkMacSystemFont, sans-serif" font-size="28" font-weight="700" letter-spacing="-.5">Marc Friedman</text><text y="55" font-family="SF Pro Display, -apple-system, BlinkMacSystemFont, sans-serif" font-size="12" font-weight="500" fill="#4A5568" letter-spacing="1">WEBSITE DESIGN AGENCY</text><g transform="translate(200 15)"><rect y="20" width="45" height="3" rx="1.5"/><rect x="2" width="41" height="25" rx="2"/><rect x="4" y="2" width="37" height="21" rx="1" fill="#333"/><rect x="5" y="3" width="35" height="19" rx=".5"/><circle cx="7" cy="5" r=".8" fill="#666"/><circle cx="9.5" cy="5" r=".8" fill="#666"/><circle cx="12" cy="5" r=".8" fill="#666"/><rect x="15" y="4" width="20" height="2" rx="1" fill="#333"/><rect x="6" y="8" width="32" height="1" rx=".5" fill="#666"/><rect x="6" y="10.5" width="25" height=".8" rx=".4" fill="#666"/><rect x="6" y="12.5" width="28" height=".8" rx=".4" fill="#666"/><rect x="6" y="15" width="14" height="6" rx="1" fill="#333"/><rect x="22" y="15" width="14" height="6" rx="1" fill="#333"/><rect x="7" y="16" width="8" height=".5" rx=".25" fill="#666"/><rect x="7" y="17.5" width="6" height=".5" rx=".25" fill="#666"/><rect x="23" y="16" width="8" height=".5" rx=".25" fill="#666"/><rect x="23" y="17.5" width="6" height=".5" rx=".25" fill="#666"/><rect x="3" y="21" width="39" height="2" rx=".5"/><rect x="4" y="21.3" width="1.5" height="1.4" rx=".2" fill="#333"/><rect x="6" y="21.3" width="1.5" height="1.4" rx=".2" fill="#333"/><rect x="8" y="21.3" width="1.5" height="1.4" rx=".2" fill="#333"/><rect x="10" y="21.3" width="1.5" height="1.4" rx=".2" fill="#333"/><rect x="12" y="21.3" width="1.5" height="1.4" rx=".2" fill="#333"/><rect x="14" y="21.3" width="1.5" height="1.4" rx=".2" fill="#333"/><rect x="16" y="21.3" width="1.5" height="1.4" rx=".2" fill="#333"/><rect x="18" y="21.3" width="1.5" height="1.4" rx=".2" fill="#333"/><rect x="20" y="21.3" width="1.5" height="1.4" rx=".2" fill="#333"/><rect x="22" y="21.3" width="1.5" height="1.4" rx=".2" fill="#333"/><rect x="24" y="21.3" width="1.5" height="1.4" rx=".2" fill="#333"/><rect x="26" y="21.3" width="1.5" height="1.4" rx=".2" fill="#333"/><rect x="28" y="21.3" width="1.5" height="1.4" rx=".2" fill="#333"/><rect x="30" y="21.3" width="1.5" height="1.4" rx=".2" fill="#333"/><rect x="32" y="21.3" width="1.5" height="1.4" rx=".2" fill="#333"/><rect x="34" y="21.3" width="1.5" height="1.4" rx=".2" fill="#333"/><rect x="36" y="21.3" width="1.5" height="1.4" rx=".2" fill="#333"/><rect x="38" y="21.3" width="1.5" height="1.4" rx=".2" fill="#333"/><rect x="40" y="21.3" width="1.5" height="1.4" rx=".2" fill="#333"/><rect x="18" y="24.5" width="9" height="6" rx="1" fill="#333"/><circle cx="22.5" cy="1.5" r=".8" fill="#666"/><circle cx="22.5" cy="1.5" r=".4" fill="#333"/></g></svg>